# xmcd
#
# Track frame offsets: 
#        182
#        32952
#        54932
#        71452
#        93967
#        118617
#        139095
#        161560
#        178695
#
# Disc length: 2802 seconds
#
# Revision: 3
# Processed by: cddbd v1.5.2PL0 Copyright (c) Steve Scherf et al.
# Submitted via: ExactAudioCopyFreeDBPlugin 1.0
#
DISCID=740af009
DTITLE=Marvin Gaye - In Our Lifetime
DYEAR=1981
DGENRE=Soul
TTITLE0=Ego Tripping Out
TTITLE1=Praise
TTITLE2=Life Is For Learning
TTITLE3=Love Party
TTITLE4=Funk Me
TTITLE5=Far Cry
TTITLE6=Love Me Now Or Love Me Later
TTITLE7=Heavy Love Affair
TTITLE8=In Our Lifetime
EXTD=
EXTT0=
EXTT1=
EXTT2=
EXTT3=
EXTT4=
EXTT5=
EXTT6=
EXTT7=
EXTT8=
PLAYORDER=
